<svg width="56" height="36" viewBox="0 0 56 36" xmlns="http://www.w3.org/2000/svg">
    <defs>
        <linearGradient x1="0%" y1="50%" x2="100%" y2="50%" id="5bnqpujtaa">
            <stop stop-color="#0095FF" offset="0%"/>
            <stop stop-color="#5700FF" offset="100%"/>
        </linearGradient>
        <linearGradient x1="0%" y1="50%" x2="100%" y2="50%" id="xvporyzh3b">
            <stop stop-color="#0095FF" offset="0%"/>
            <stop stop-color="#5700FF" offset="100%"/>
        </linearGradient>
        <linearGradient x1="0%" y1="50%" x2="100%" y2="50%" id="hw6p5ooaqc">
            <stop stop-color="#0095FF" offset="0%"/>
            <stop stop-color="#5700FF" offset="100%"/>
        </linearGradient>
    </defs>
    <g transform="translate(.003 .242)" fill="none" fill-rule="evenodd">
        <path d="M14.148 0C6.334 0 0 6.326 0 14.129c0 7.802 6.334 14.128 14.148 14.128 3.988 0 7.586-1.65 10.157-4.298l-10.157-9.83V0z" fill="url(#5bnqpujtaa)" fill-rule="nonzero" transform="translate(22.907 7.303)"/>
        <path d="M28.296 14.129C28.296 6.326 21.96 0 14.148 0v14.129h14.148z" fill="url(#xvporyzh3b)" fill-rule="nonzero" transform="translate(22.907 7.303)"/>
        <path d="m41.432 23.092 10.158 9.83a14.068 14.068 0 0 0 3.99-9.83H41.432z" fill="#0096FF"/>
        <ellipse fill="url(#hw6p5ooaqc)" fill-rule="nonzero" cx="15.848" cy="15.827" rx="15.848" ry="15.827"/>
        <ellipse fill="#0096FF" cx="15.848" cy="15.827" rx="13.237" ry="13.219"/>
        <path d="M15.189 24.348v-1.493c-1.258-.143-2.28-.583-3.069-1.32-.79-.738-1.198-1.726-1.225-2.968h2.623c.027.519.184.97.476 1.358.292.39.69.654 1.195.797v-4.093c-.117-.038-.238-.079-.36-.116-.124-.04-.249-.079-.378-.116-1.05-.362-1.847-.827-2.398-1.396-.552-.567-.828-1.323-.828-2.268-.013-1.113.349-2.009 1.087-2.687.738-.677 1.695-1.069 2.874-1.174V7.3h1.3v1.59c1.166.116 2.11.518 2.826 1.212.719.691 1.097 1.58 1.135 2.665h-2.66a1.856 1.856 0 0 0-1.3-1.706v3.607c.105.04.208.075.31.108.103.032.208.067.311.108.67.232 1.287.502 1.844.815.557.31 1.003.72 1.341 1.231.338.51.503 1.167.503 1.968 0 .673-.165 1.3-.495 1.882-.33.583-.816 1.064-1.457 1.445-.64.38-1.428.596-2.36.648v1.474h-1.3.005zm-1.36-11.79c0 .412.124.744.367.998.246.254.576.47.99.648v-3.218c-.4.078-.727.251-.981.521-.252.273-.379.621-.379 1.048l.003.002zm4.33 6.514c0-.518-.153-.926-.464-1.22-.311-.297-.711-.55-1.203-.759v3.686c.519-.079.927-.265 1.222-.562.297-.297.446-.678.446-1.145z" fill="#FFF" fill-rule="nonzero"/>
    </g>
</svg>
