<svg width="55" height="42" viewBox="0 0 55 42" xmlns="http://www.w3.org/2000/svg">
    <defs>
        <linearGradient x1="0%" y1="50%" x2="100%" y2="50%" id="koi4fspnla">
            <stop stop-color="#0095FF" offset="0%"/>
            <stop stop-color="#5700FF" offset="100%"/>
        </linearGradient>
    </defs>
    <g transform="translate(0 .245)" fill="none" fill-rule="evenodd">
        <path d="M43.966 40.935H24.937a9.217 9.217 0 0 1-6.556-2.712l-3.547-3.543a6.275 6.275 0 0 0-4.461-1.847h-5.84c-.817 0-1.48-.661-1.48-1.477V19.14c0-.815.663-1.477 1.48-1.477h16.156c1.648 0 3.195.641 4.36 1.802l9.728 9.715a3.894 3.894 0 0 1 1.003 3.782l8.204.186a3.899 3.899 0 0 1 3.879 3.89 3.903 3.903 0 0 1-3.897 3.892v.006zM6.012 29.879h4.363c2.477 0 4.805.963 6.557 2.712l3.547 3.543a6.275 6.275 0 0 0 4.461 1.846h19.026a.937.937 0 1 0 0-1.873h-.032l-11.763-.266a3.911 3.911 0 0 1-2.642-.895l-8.53-7.052a1.475 1.475 0 0 1-.195-2.08 1.48 1.48 0 0 1 2.083-.195l8.532 7.052c.157.13.34.2.527.216h.139a.932.932 0 0 0 .598-.272.94.94 0 0 0 .009-1.336l-9.728-9.714a3.189 3.189 0 0 0-2.27-.94H6.013v9.263-.009z" fill="#0096FF"/>
        <rect fill="#0096FF" y="14.903" width="7.509" height="19.993" rx="3.754"/>
        <ellipse fill="url(#koi4fspnla)" fill-rule="nonzero" cx="42.313" cy="12.291" rx="12.307" ry="12.291"/>
        <ellipse fill="#0096FF" cx="42.313" cy="12.291" rx="9.047" ry="9.035"/>
        <path d="M41.798 18.912v-1.158c-.976-.11-1.77-.452-2.382-1.026-.612-.573-.929-1.338-.952-2.304h2.035c.02.402.145.753.37 1.055.228.301.535.508.929.617v-3.179l-.278-.089c-.095-.03-.196-.059-.296-.091-.814-.28-1.435-.641-1.861-1.084-.429-.44-.642-1.029-.642-1.761-.009-.863.272-1.56.843-2.086.571-.526 1.317-.83 2.234-.913v-1.22h1.009v1.235c.905.088 1.636.401 2.195.942.559.538.852 1.226.882 2.071h-2.066a1.462 1.462 0 0 0-.28-.806 1.398 1.398 0 0 0-.731-.52v2.8c.08.03.16.06.242.083.08.024.16.053.243.083.52.18 1 .39 1.432.632.432.24.778.559 1.041.958.263.398.39.907.39 1.527 0 .523-.127 1.008-.384 1.462-.257.455-.633.828-1.13 1.123-.497.296-1.11.464-1.831.505v1.144h-1.012zm-1.056-9.156c0 .322.094.579.287.777.192.195.446.363.769.505v-2.5c-.31.06-.565.196-.763.405-.196.21-.293.482-.293.813zm3.363 5.06c0-.4-.12-.717-.36-.948a3.014 3.014 0 0 0-.935-.587v2.862c.402-.059.719-.206.95-.437.23-.23.345-.526.345-.89z" fill="#FFF" fill-rule="nonzero"/>
    </g>
</svg>
