<svg width="45" height="43" viewBox="0 0 45 43" xmlns="http://www.w3.org/2000/svg">
    <defs>
        <linearGradient x1="0%" y1="50%" x2="100%" y2="50%" id="kz8frmgcha">
            <stop stop-color="#0095FF" offset="0%"/>
            <stop stop-color="#5700FF" offset="100%"/>
        </linearGradient>
        <linearGradient x1="0%" y1="50%" x2="100%" y2="50%" id="u0qa107qgb">
            <stop stop-color="#0095FF" offset="0%"/>
            <stop stop-color="#5700FF" offset="100%"/>
        </linearGradient>
    </defs>
    <g fill="none" fill-rule="evenodd">
        <path d="M21.981 42.182c-.71 0-1.412-.19-1.915-.474a1080.981 1080.981 0 0 1-18.34-10.696 1.53 1.53 0 0 1-.53-2.098 1.533 1.533 0 0 1 2.101-.53A1095.67 1095.67 0 0 0 21.586 39.05c.098.049.35.083.48.067 3.291-1.857 6.621-3.775 9.844-5.632 2.843-1.637 5.784-3.331 8.69-4.98a1.536 1.536 0 0 1 2.09.575c.417.734.16 1.667-.576 2.086-2.898 1.643-5.833 3.335-8.673 4.969-3.25 1.872-6.607 3.808-9.931 5.68-.457.258-.993.365-1.526.365l-.003.003z" fill="url(#kz8frmgcha)" fill-rule="nonzero" transform="translate(0 .816)"/>
        <path d="M21.981 35.8c-.71 0-1.415-.19-1.915-.478A1098.323 1098.323 0 0 1 1.726 24.63a1.53 1.53 0 0 1-.53-2.099 1.533 1.533 0 0 1 2.101-.53 1092.265 1092.265 0 0 0 18.289 10.666c.098.049.352.082.48.067 3.294-1.857 6.627-3.778 9.85-5.635 2.84-1.637 5.778-3.329 8.682-4.975a1.536 1.536 0 0 1 2.089.575c.417.735.16 1.668-.576 2.087-2.895 1.64-5.827 3.328-8.663 4.965-3.254 1.872-6.614 3.812-9.941 5.687-.457.257-.993.364-1.526.364V35.8z" fill="#0096FF"/>
        <path d="M21.981 28.504c-.71 0-1.412-.19-1.915-.475a1074.094 1074.094 0 0 1-18.34-10.692 3.594 3.594 0 0 1-.344-.235 3.688 3.688 0 0 1-1.381-2.968c.027-1.172.576-2.227 1.507-2.891l.037-.025c.03-.02.061-.04.092-.058A1010.67 1010.67 0 0 1 20.164.407c.037-.022.077-.04.114-.058a3.805 3.805 0 0 1 3.183 0c.036.018.076.036.113.058 4.071 2.297 8.186 4.665 12.165 6.957 2.157 1.242 4.313 2.484 6.473 3.72.754.431 1.28.96 1.608 1.615.58 1.163.417 2.607-.416 3.674-.356.456-.788.83-1.29 1.114-2.898 1.643-5.833 3.335-8.673 4.968-3.25 1.873-6.607 3.81-9.931 5.681-.457.257-.993.365-1.526.365l-.003.003z" fill="url(#u0qa107qgb)" fill-rule="nonzero" transform="translate(0 .816)"/>
    </g>
</svg>
