<svg viewBox="0 0 16 16" xmlns="http://www.w3.org/2000/svg">
    <path d="M11.224 1.753a3.264 3.264 0 0 0-2.144.973l-2.312 2.31c.363-.365 1.711-.114 2.038.213l1.399-1.398c.31-.31.698-.5 1.095-.517.27-.013.652.044.988.38.314.313.38.678.38.927 0 .416-.19.83-.517 1.155L9.718 8.243c-.612.612-1.543.661-2.083.122a.8.8 0 0 0-1.125 0 .797.797 0 0 0 0 1.124 2.859 2.859 0 0 0 2.037.836c.814 0 1.645-.332 2.281-.972l2.449-2.432c.621-.62.973-1.448.973-2.28 0-.773-.293-1.508-.836-2.052a2.874 2.874 0 0 0-2.19-.836zM7.453 5.675a3.28 3.28 0 0 0-2.297.972L2.723 9.08c-.621.62-.973 1.448-.973 2.28 0 .773.293 1.508.836 2.052a2.874 2.874 0 0 0 2.19.836 3.264 3.264 0 0 0 2.144-.973l2.312-2.31c-.365.365-1.711.114-2.038-.213l-1.399 1.398c-.31.31-.698.498-1.095.517a1.273 1.273 0 0 1-.988-.38 1.292 1.292 0 0 1-.38-.927c0-.416.19-.83.517-1.155l2.433-2.447c.612-.612 1.543-.66 2.083-.122A.797.797 0 0 0 9.49 6.51a2.862 2.862 0 0 0-2.037-.835z" />
</svg>
