<svg viewBox="0 0 15 15" width="15" height="15"  xmlns="http://www.w3.org/2000/svg">
    <path d="M4.86 11.518c0-.068-.076-.115-.164-.106-.085 0-.152.047-.152.106 0 .067.067.114.164.105.085 0 .152-.047.152-.105zm-.91-.132c-.021.058.037.126.125.143.076.03.164 0 .182-.058.017-.059-.038-.126-.126-.153-.076-.02-.161.01-.182.068zm1.294-.05c-.085.02-.143.076-.135.143.01.06.085.097.173.077.085-.02.144-.077.135-.135-.009-.056-.088-.094-.173-.085zM7.172.109C3.108.11 0 3.194 0 7.258c0 3.249 2.045 6.03 4.966 7.008.375.067.507-.164.507-.355 0-.181-.01-1.183-.01-1.799 0 0-2.05.44-2.48-.873 0 0-.335-.852-.815-1.072 0 0-.67-.46.047-.451 0 0 .73.058 1.13.756.642 1.13 1.717.805 2.136.612.068-.469.258-.794.47-.987-1.638-.182-3.29-.42-3.29-3.238 0-.805.222-1.21.69-1.725-.076-.19-.325-.976.077-1.99.612-.19 2.021.792 2.021.792a6.884 6.884 0 0 1 1.84-.25c.624 0 1.254.086 1.84.25 0 0 1.41-.985 2.021-.791.402 1.016.153 1.798.077 1.989.468.518.755.923.755 1.725 0 2.828-1.725 3.053-3.363 3.238.27.231.498.67.498 1.36 0 .986-.009 2.208-.009 2.448 0 .19.135.422.507.355 2.93-.973 4.916-3.753 4.916-7.002 0-4.064-3.296-7.149-7.36-7.149zM2.848 10.214c-.038.03-.03.097.02.152.047.047.114.068.152.03.039-.03.03-.097-.02-.153-.047-.047-.114-.067-.152-.03zm-.317-.237c-.02.038.009.085.068.114.047.03.105.02.126-.02.02-.039-.01-.086-.068-.115-.058-.018-.105-.009-.126.02zm.95 1.043c-.047.038-.03.126.038.181.067.068.152.076.19.03.038-.039.02-.127-.038-.182-.065-.068-.152-.076-.19-.03zm-.335-.431c-.046.03-.046.105 0 .173.047.067.126.096.165.067.046-.038.046-.114 0-.182-.041-.067-.118-.096-.165-.058z"/>
</svg>
