<svg width="14" height="14" viewBox="0 0 14 14" xmlns="http://www.w3.org/2000/svg">
    <path d="M12.187.813H.935A.942.942 0 0 0 0 1.759V12.99c0 .522.419.946.935.946h11.252a.944.944 0 0 0 .938-.946V1.76a.944.944 0 0 0-.938-.946zm-8.22 11.25H2.02V5.799H3.97v6.264h-.003zm-.973-7.12a1.128 1.128 0 1 1 .001-2.256 1.128 1.128 0 0 1 0 2.256zm8.265 7.12H9.313V9.016c0-.727-.014-1.662-1.01-1.662-1.014 0-1.17.792-1.17 1.609v3.1H5.189V5.799h1.867v.855h.026c.26-.492.897-1.01 1.843-1.01 1.969 0 2.335 1.297 2.335 2.985v3.434z" fill="#FFF" fill-rule="nonzero"/>
</svg>
