<svg width="15" height="15" viewBox="0 0 15 15" xmlns="http://www.w3.org/2000/svg">
    <path d="M7.266.11A7.264 7.264 0 0 0 0 7.374a7.264 7.264 0 0 0 7.266 7.266 7.264 7.264 0 0 0 7.265-7.266A7.264 7.264 0 0 0 7.266.109zm3.568 4.977-1.192 5.62c-.088.397-.326.494-.657.307L7.17 9.674l-.876.845c-.097.096-.179.178-.366.178l.129-1.848 3.366-3.041c.146-.13-.032-.203-.226-.074l-4.16 2.62-1.793-.56c-.39-.123-.398-.39.082-.577l7.005-2.701c.325-.118.61.079.504.57z" fill="#FFF" fill-rule="nonzero"/>
</svg>
