<svg width="18" height="14" viewBox="0 0 18 14" xmlns="http://www.w3.org/2000/svg">
    <path d="M15.367 1.921a.044.044 0 0 0-.022-.02A14.303 14.303 0 0 0 11.829.811a.053.053 0 0 0-.047.028c-.16.29-.306.59-.437.897a13.201 13.201 0 0 0-1.982-.15c-.673 0-1.31.051-1.956.15A9.098 9.098 0 0 0 6.964.84a.055.055 0 0 0-.057-.027c-1.22.21-2.413.586-3.506 1.088a.05.05 0 0 0-.023.02C1.145 5.254.533 8.508.833 11.72c.002.017.01.031.022.04a14.323 14.323 0 0 0 4.318 2.176.055.055 0 0 0 .044-.022c.331-.45.626-.928.88-1.43a.054.054 0 0 0-.03-.076 9.446 9.446 0 0 1-1.343-.64.055.055 0 0 1-.006-.092c.09-.068.18-.138.267-.21a.053.053 0 0 1 .056-.007c2.819 1.287 5.871 1.287 8.657 0a.053.053 0 0 1 .056.007c.087.071.177.142.268.21a.055.055 0 0 1-.005.091 8.864 8.864 0 0 1-1.344.64.055.055 0 0 0-.03.076c.26.5.553.977.88 1.43a.055.055 0 0 0 .06.021 14.276 14.276 0 0 0 4.309-2.173.055.055 0 0 0 .022-.04c.36-3.714-.602-6.94-2.547-9.801zM6.518 9.765c-.849 0-1.548-.779-1.548-1.735 0-.957.686-1.736 1.548-1.736.87 0 1.562.786 1.548 1.735 0 .957-.685 1.736-1.548 1.736zm5.724 0c-.848 0-1.548-.779-1.548-1.735 0-.957.686-1.736 1.548-1.736.87 0 1.562.786 1.548 1.735 0 .957-.679 1.736-1.548 1.736z" fill="#FFF" fill-rule="nonzero"/>
</svg>
