<svg  viewBox="0 0 16 16" xmlns="http://www.w3.org/2000/svg">
    <path d="M4 15H1V6h3v9zM2.75 4.5c-.475 0-.886-.173-1.231-.519A1.682 1.682 0 0 1 1 2.75c0-.475.173-.886.519-1.231A1.682 1.682 0 0 1 2.75 1c.475 0 .886.173 1.231.519.346.345.519.756.519 1.231 0 .475-.173.886-.519 1.231A1.682 1.682 0 0 1 2.75 4.5zM15 15h-2.896v-4.518c0-.743-.062-1.279-.187-1.609-.228-.557-.675-.836-1.34-.836-.664 0-1.13.248-1.4.743-.208.371-.312.918-.312 1.64V15H6V5.748h2.772v1.268h.03c.208-.412.54-.753.997-1.02.499-.331 1.08-.496 1.744-.496 1.35 0 2.294.423 2.834 1.269.415.68.623 1.733.623 3.156V15z" />
</svg>
