<svg width="15" height="13" viewBox="0 0 15 13" xmlns="http://www.w3.org/2000/svg">
    <path d="M13.458 3.32c.6-.438 1.123-.98 1.542-1.59a6.163 6.163 0 0 1-1.77.476A3.066 3.066 0 0 0 14.58.512c-.59.352-1.256.61-1.951.742a3.067 3.067 0 0 0-2.246-.97A3.073 3.073 0 0 0 7.31 3.358c0 .238.028.476.076.704A8.738 8.738 0 0 1 1.046.845a3.05 3.05 0 0 0-.418 1.552c0 1.066.543 2.008 1.37 2.56a3.096 3.096 0 0 1-1.389-.39v.038a3.075 3.075 0 0 0 2.465 3.017 3.25 3.25 0 0 1-.809.105c-.2 0-.39-.02-.58-.048A3.08 3.08 0 0 0 4.559 9.81a6.157 6.157 0 0 1-3.817 1.313c-.257 0-.495-.01-.742-.038a8.687 8.687 0 0 0 4.72 1.38c5.654 0 8.748-4.682 8.748-8.746 0-.134 0-.267-.01-.4z" />
</svg>
