<svg viewBox="0 0 16 16" xmlns="http://www.w3.org/2000/svg">
    <path d="M5.119 14.359c5.849 0 9.05-4.85 9.05-9.05 0-.136 0-.273-.007-.409a6.48 6.48 0 0 0 1.588-1.65 6.446 6.446 0 0 1-1.83.503 3.2 3.2 0 0 0 1.402-1.762 6.327 6.327 0 0 1-2.022.77 3.175 3.175 0 0 0-2.32-1.006 3.184 3.184 0 0 0-3.1 3.908 9.032 9.032 0 0 1-6.557-3.325 3.19 3.19 0 0 0 .986 4.249A3.217 3.217 0 0 1 .87 6.19v.044a3.187 3.187 0 0 0 2.55 3.12 3.1 3.1 0 0 1-.838.111c-.205 0-.403-.019-.595-.056a3.18 3.18 0 0 0 2.97 2.208 6.38 6.38 0 0 1-3.95 1.365 6.12 6.12 0 0 1-.757-.044 9.047 9.047 0 0 0 4.869 1.42" />
</svg>
