<svg viewBox="0 0 16 16" xmlns="http://www.w3.org/2000/svg">
    <path d="M12.312 3.76a6.276 6.276 0 0 1 1.34 1.961c.315.731.473 1.493.473 2.287a5.748 5.748 0 0 1-.825 3.005c-.55.92-1.29 1.65-2.22 2.192a5.892 5.892 0 0 1-3.018.812 5.85 5.85 0 0 1-2.868-.731L2 14.125l.866-3.112a5.82 5.82 0 0 1-.812-3.005c0-1.082.27-2.084.812-3.004a6.08 6.08 0 0 1 2.192-2.192A5.82 5.82 0 0 1 8.062 2c.794 0 1.557.153 2.287.46.731.307 1.385.74 1.963 1.3zm-4.25 9.255c.903 0 1.742-.225 2.518-.676a5.14 5.14 0 0 0 1.853-1.827 4.778 4.778 0 0 0 .285-4.398 5.353 5.353 0 0 0-1.124-1.638A5.015 5.015 0 0 0 9.971 3.38a4.899 4.899 0 0 0-1.909-.379 4.85 4.85 0 0 0-2.503.677 5.066 5.066 0 0 0-1.827 1.827 4.85 4.85 0 0 0-.676 2.503c0 .957.261 1.84.784 2.653l.109.19-.515 1.84 1.895-.488.19.109c.775.469 1.623.703 2.543.703zm2.734-3.762.081.054c.127.055.199.1.217.136.018.036.022.126.013.27a1.402 1.402 0 0 1-.108.447c-.063.153-.207.307-.433.46-.226.153-.42.24-.582.257a2.479 2.479 0 0 1-.73 0c-.271-.054-.632-.18-1.083-.379-.92-.397-1.76-1.136-2.517-2.219L5.6 8.225c-.397-.56-.596-1.074-.596-1.543 0-.469.163-.875.487-1.218l.027-.027a.569.569 0 0 1 .406-.19h.325c.072 0 .131.014.176.041.045.027.086.095.122.203l.46 1.11c.054.108.063.198.027.27-.09.181-.207.343-.352.488a.606.606 0 0 0-.135.176c-.018.045 0 .094.054.149.253.469.55.839.893 1.11.253.198.632.423 1.137.676.144.072.252.063.325-.027.234-.27.397-.47.487-.596.036-.072.081-.108.135-.108.054 0 .117.01.19.027.144.054.487.217 1.028.487z" />
</svg>
