<?xml version="1.0" encoding="UTF-8"?>
<svg width="16px" height="16px" viewBox="0 0 16 16" version="1.1" xmlns="http://www.w3.org/2000/svg" xmlns:xlink="http://www.w3.org/1999/xlink">
    <title>Inputs / _/ Black / Clock</title>
    <g id="Symbols" stroke="none" stroke-width="1">
        <g id="News-/-Dark-/-Card-desktop" transform="translate(-307.000000, -333.000000)">
            <g id="Group" transform="translate(304.000000, 330.000000)">
                <g id="Inputs-/-_/-Black-/-Clock" transform="translate(3.000000, 3.000000)">
                    <path d="M8.42307692,3.98076923 L8.42307692,8.19230769 L12.0192308,10.3269231 L11.4230769,11.3461538 L7.21153846,8.78846154 L7.21153846,3.98076923 L8.42307692,3.98076923 Z M8,14.4230769 C9.15385192,14.4230769 10.2307642,14.1282081 11.2307692,13.5384615 C12.2051331,12.9743562 12.9743562,12.2051331 13.5384615,11.2307692 C14.1282081,10.2307642 14.4230769,9.15385192 14.4230769,8 C14.4230769,6.84614808 14.1282081,5.76923577 13.5384615,4.76923077 C12.9743562,3.79486692 12.2051331,3.02564385 11.2307692,2.46153846 C10.2307642,1.87179192 9.15385192,1.57692308 8,1.57692308 C6.84614808,1.57692308 5.76923577,1.87179192 4.76923077,2.46153846 C3.79486692,3.02564385 3.02564385,3.79486692 2.46153846,4.76923077 C1.87179192,5.76923577 1.57692308,6.84614808 1.57692308,8 C1.57692308,9.15385192 1.87179192,10.2307642 2.46153846,11.2307692 C3.02564385,12.2051331 3.79486692,12.9743562 4.76923077,13.5384615 C5.76923577,14.1282081 6.84614808,14.4230769 8,14.4230769 Z M8,8.8817842e-16 C9.46154577,8.8817842e-16 10.8140963,0.365380962 12.0576923,1.09615385 C13.2628265,1.788465 14.211535,2.73717346 14.9038462,3.94230769 C15.634619,5.18590365 16,6.53845423 16,8 C16,9.46154577 15.634619,10.8140963 14.9038462,12.0576923 C14.211535,13.2628265 13.2628265,14.211535 12.0576923,14.9038462 C10.8140963,15.634619 9.46154577,16 8,16 C6.53845423,16 5.18590365,15.634619 3.94230769,14.9038462 C2.73717346,14.1987144 1.788465,13.2435958 1.09615385,12.0384615 C0.365380962,10.7948656 0,9.44872519 0,8 C0,6.55127481 0.365380962,5.20513442 1.09615385,3.96153846 C1.80128558,2.75640423 2.75640423,1.80128558 3.96153846,1.09615385 C5.20513442,0.365380962 6.55127481,8.8817842e-16 8,8.8817842e-16 Z" id="access_time---material"></path>
                </g>
            </g>
        </g>
    </g>
</svg>