<svg width="46" height="44" viewBox="0 0 46 44" xmlns="http://www.w3.org/2000/svg">
    <defs>
        <linearGradient x1="0%" y1="50%" x2="100%" y2="50%" id="wmocsoipca">
            <stop stop-color="#0095FF" offset="0%"/>
            <stop stop-color="#5700FF" offset="100%"/>
        </linearGradient>
    </defs>
    <g fill="none" fill-rule="evenodd">
        <path d="m38.089 26.41.011-.029a7.744 7.744 0 0 0-.646-15.46h-.085a6.093 6.093 0 0 0-8.058-6.76 7.49 7.49 0 0 0-13.421.002 6.093 6.093 0 0 0-8.058 6.76h-.086A7.738 7.738 0 0 0 0 18.663c0 4.277 3.124 7.39 7.1 7.716.004.01.006.019.011.028h8.883v5.224c0 .59-.482 1.072-1.072 1.072H6.729v2.315h8.193a3.392 3.392 0 0 0 3.387-3.387v-5.224h3.133v14.359h2.316v-14.36h3.105v5.225a3.392 3.392 0 0 0 3.388 3.387h8.192v-2.315h-8.192c-.59 0-1.072-.482-1.072-1.072v-5.224h8.908l.002.002z" fill="url(#wmocsoipca)" fill-rule="nonzero" transform="translate(.008 .008)"/>
        <g transform="translate(3.657 30.883)" fill="#0096FF">
            <circle cx="18.948" cy="9.918" r="2.971"/>
            <circle cx="2.971" cy="2.971" r="2.971"/>
            <circle cx="34.694" cy="2.971" r="2.971"/>
        </g>
        <path d="m12.854 20.741 3.372-9.22h1.896l3.372 9.22H19.7l-.736-2.132H15.37l-.75 2.132h-1.765zm2.978-3.45h2.675l-1.343-3.832-1.332 3.832zM22.68 20.741v-9.218h3.41c.739 0 1.348.123 1.832.368s.843.584 1.081 1.014c.236.43.354.913.354 1.45 0 .537-.113.977-.342 1.403-.23.426-.584.769-1.068 1.028-.484.26-1.102.39-1.857.39h-1.725v3.57h-1.686v-.005zm1.685-4.939h1.62c.59 0 1.013-.13 1.272-.389.26-.26.39-.614.39-1.06 0-.447-.13-.816-.39-1.075-.26-.26-.683-.389-1.271-.389h-1.621V15.802zM30.675 20.741v-9.218h1.686v9.22h-1.686z" fill="#FFF" fill-rule="nonzero"/>
    </g>
</svg>
