<svg width="40" height="48" viewBox="0 0 40 48" xmlns="http://www.w3.org/2000/svg">
    <defs>
        <linearGradient x1="0%" y1="50%" x2="100%" y2="50%" id="ueb29nk30a">
            <stop stop-color="#0095FF" offset="0%"/>
            <stop stop-color="#5700FF" offset="100%"/>
        </linearGradient>
    </defs>
    <g fill="none" fill-rule="evenodd">
        <path d="M19.582 0a3.75 3.75 0 0 0-2.298.785C12.08 4.805-.178 15.665.002 28.652a19.499 19.499 0 0 0 19.546 19.282c.358 0 .718-.009 1.08-.029 10.315-.55 18.509-9.088 18.509-19.54 0-13.013-12.084-23.634-17.26-27.586A3.759 3.759 0 0 0 19.582 0z" fill="url(#ueb29nk30a)" fill-rule="nonzero" transform="translate(0 .008)"/>
        <path d="M19.571 14.795c7.308 0 13.254 5.946 13.254 13.254 0 7.307-5.946 13.254-13.254 13.254-7.307 0-13.254-5.947-13.254-13.254 0-7.308 5.947-13.254 13.254-13.254" fill="#0096FF"/>
        <path d="M18.908 35.607v-1.294c-1.086-.124-1.972-.504-2.653-1.142-.683-.639-1.035-1.494-1.06-2.571h2.267c.022.447.16.841.41 1.176a1.89 1.89 0 0 0 1.033.689V28.92a23.885 23.885 0 0 0-.639-.2c-.905-.312-1.597-.717-2.073-1.21-.478-.492-.714-1.147-.714-1.963-.012-.965.3-1.738.94-2.326.638-.588 1.465-.926 2.486-1.018v-1.359h1.125v1.378c1.01.099 1.823.45 2.444 1.05.622.599.951 1.367.982 2.309h-2.301a1.603 1.603 0 0 0-.312-.897 1.54 1.54 0 0 0-.816-.58v3.122c.09.034.18.065.27.093.09.028.18.06.27.093.582.2 1.114.436 1.595.706.481.267.87.624 1.159 1.066.29.442.436 1.01.436 1.705 0 .582-.144 1.125-.428 1.628-.284.504-.706.923-1.26 1.252-.554.33-1.235.518-2.04.563v1.277h-1.124l.003-.003zm-1.176-10.21c0 .356.107.646.318.866.213.219.498.405.858.562v-2.787a1.52 1.52 0 0 0-.85.452c-.216.237-.326.538-.326.909v-.003zm3.744 5.642c0-.448-.135-.802-.403-1.058a3.315 3.315 0 0 0-1.04-.655v3.192c.447-.067.801-.23 1.057-.486.256-.256.389-.588.389-.99l-.003-.003z" fill="#FFF" fill-rule="nonzero"/>
    </g>
</svg>
