<svg width="78" height="78" viewBox="0 0 78 78" xmlns="http://www.w3.org/2000/svg" xmlns:xlink="http://www.w3.org/1999/xlink">
    <defs>
        <linearGradient x1="23.847%" y1="0%" x2="84.817%" y2="100%" id="eyqcyrhq5c">
            <stop stop-color="#72FFFF" offset="0%"/>
            <stop stop-color="#38C9FF" stop-opacity="0" offset="22.937%"/>
            <stop stop-color="#1AAEFF" stop-opacity="0" offset="76.388%"/>
            <stop stop-color="#0096FF" offset="100%"/>
        </linearGradient>
        <linearGradient x1="0%" y1="50%" x2="100%" y2="50%" id="ik5fxum83d">
            <stop stop-color="#0095FF" offset="0%"/>
            <stop stop-color="#5700FF" offset="100%"/>
        </linearGradient>
        <filter x="-2.6%" y="-2.6%" width="105.1%" height="105.1%" filterUnits="objectBoundingBox" id="itsntku6gb">
            <feMorphology radius="1" in="SourceAlpha" result="shadowSpreadInner1"/>
            <feGaussianBlur stdDeviation="1.5" in="shadowSpreadInner1" result="shadowBlurInner1"/>
            <feOffset in="shadowBlurInner1" result="shadowOffsetInner1"/>
            <feComposite in="shadowOffsetInner1" in2="SourceAlpha" operator="arithmetic" k2="-1" k3="1" result="shadowInnerInner1"/>
            <feColorMatrix values="0 0 0 0 1 0 0 0 0 1 0 0 0 0 1 0 0 0 0.2 0" in="shadowInnerInner1"/>
        </filter>
        <circle id="ietcoaw8sa" cx="39" cy="39" r="39"/>
    </defs>
    <g fill="none" fill-rule="evenodd">
        <g>
            <use fill-opacity=".7" fill="#2D1A51" xlink:href="#ietcoaw8sa"/>
            <use fill="#000" filter="url(#itsntku6gb)" xlink:href="#ietcoaw8sa"/>
            <circle stroke="url(#eyqcyrhq5c)" stroke-linejoin="square" cx="39" cy="39" r="38.5"/>
        </g>
        <path fill="#0096FF" d="m27.56 43.31-1.794-1.797L37.29 29.989l11.523 11.524-1.794 1.797-9.729-9.73zM29.515 47.104h15.551v2.538H29.515z"/>
        <path d="M30.523 48.518c0 1.233-.016 2.47.007 3.703.008.436-.099.71-.5.939-2.327 1.32-4.634 2.678-6.964 3.992-.18.102-.531.069-.721-.04a412.348 412.348 0 0 1-6.858-4.003c-.229-.137-.46-.495-.462-.751a315.552 315.552 0 0 1 0-7.904c.033-.29.188-.55.429-.716a383.94 383.94 0 0 1 6.926-4.025.848.848 0 0 1 .71 0c2.336 1.32 4.65 2.668 6.976 4.003.32.182.462.408.457.789-.02 1.338-.008 2.675-.008 4.013h.008zM59.551 48.518c0 1.233-.015 2.47.008 3.703.007.436-.1.71-.5.939-2.328 1.32-4.635 2.678-6.965 3.992-.18.102-.53.069-.72-.04a412.348 412.348 0 0 1-6.859-4.003c-.228-.137-.46-.495-.462-.751a315.553 315.553 0 0 1 0-7.904c.033-.29.188-.55.43-.716a383.94 383.94 0 0 1 6.926-4.025.848.848 0 0 1 .71 0c2.335 1.32 4.65 2.668 6.975 4.003.32.182.462.408.457.789-.02 1.338-.008 2.675-.008 4.013h.008zM45.035 24.883c0 1.233-.015 2.47.008 3.703.008.436-.099.71-.5.939-2.327 1.32-4.635 2.678-6.965 3.992-.18.102-.53.069-.72-.04A412.348 412.348 0 0 1 30 29.474c-.229-.137-.46-.495-.462-.751a315.552 315.552 0 0 1 0-7.904c.033-.29.188-.55.429-.715a383.94 383.94 0 0 1 6.926-4.026.848.848 0 0 1 .71 0c2.336 1.32 4.65 2.668 6.976 4.003.32.182.462.408.456.789-.02 1.338-.007 2.675-.007 4.013h.007z" fill="url(#ik5fxum83d)" fill-rule="nonzero"/>
    </g>
</svg>
