<svg width="55" height="39" viewBox="0 0 55 39" xmlns="http://www.w3.org/2000/svg">
    <defs>
        <linearGradient x1="0%" y1="50%" x2="100%" y2="50%" id="4oprjzzoya">
            <stop stop-color="#0095FF" offset="0%"/>
            <stop stop-color="#5700FF" offset="100%"/>
        </linearGradient>
        <linearGradient x1="0%" y1="50%" x2="100%" y2="50%" id="uc3dljxlyb">
            <stop stop-color="#0095FF" offset="0%"/>
            <stop stop-color="#5700FF" offset="100%"/>
        </linearGradient>
    </defs>
    <g fill="none" fill-rule="evenodd">
        <path d="M12.305 20.825h-.065a1.355 1.355 0 0 1-1.29-1.417C11.336 11.26 18.032 4.88 26.195 4.88a1.356 1.356 0 0 1 0 2.71c-6.713 0-12.221 5.249-12.538 11.948a1.355 1.355 0 0 1-1.353 1.29v-.003z" fill="url(#4oprjzzoya)" fill-rule="nonzero"/>
        <g fill="#0096FF">
            <path d="M39.9 23.897a1.357 1.357 0 0 1-1.34-1.591c.036-.201.065-.402.09-.605a1.355 1.355 0 1 1 2.692.333c-.03.247-.068.494-.109.738a1.356 1.356 0 0 1-1.333 1.122v.003zM32.081 34.1a1.357 1.357 0 0 1-.575-2.584 12.3 12.3 0 0 0 1.025-.538 1.352 1.352 0 0 1 1.854.485c.38.645.163 1.478-.485 1.854-.404.236-.824.459-1.247.656a1.35 1.35 0 0 1-.572.128zm5.154-4.144a1.356 1.356 0 0 1-1.074-2.18c.233-.303.456-.623.662-.951a1.356 1.356 0 1 1 2.293 1.447c-.25.396-.52.786-.805 1.155-.266.347-.67.532-1.076.532v-.003z"/>
        </g>
        <path d="M20.69 19.47H3.402A3.403 3.403 0 0 0 0 22.872v8.735a3.403 3.403 0 0 0 3.402 3.402l-.084 3.665 5.544-3.665h11.83a3.403 3.403 0 0 0 3.403-3.402v-8.735a3.403 3.403 0 0 0-3.402-3.402h-.003z" fill="#FFF" fill-rule="nonzero"/>
        <path d="m10.895 28.709-.06-2.43h.678c.502 0 .957-.043 1.37-.132.411-.09.74-.26.986-.515.247-.255.369-.63.369-1.12 0-.49-.144-.84-.429-1.111-.284-.269-.661-.404-1.133-.404-.471 0-.873.135-1.15.404-.273.27-.411.637-.411 1.098H9.334c-.011-.589.116-1.114.382-1.575.266-.461.65-.824 1.155-1.09.504-.266 1.111-.399 1.819-.399.659 0 1.239.122 1.746.369.507.247.902.596 1.193 1.055.29.458.433 1.013.433 1.67 0 .656-.149 1.238-.45 1.678-.298.441-.707.77-1.222.986-.515.217-1.112.328-1.79.34l-.043 1.176h-1.664.002zm.84 3.313c-.344 0-.626-.109-.845-.323a1.05 1.05 0 0 1-.33-.78c0-.304.11-.578.33-.795.22-.217.501-.323.846-.323.344 0 .623.109.84.323.217.217.323.48.323.794 0 .315-.109.567-.323.78-.217.218-.496.324-.84.324z" fill="#0096FF"/>
        <g fill="#0096FF">
            <path d="M26.196 35.405c-.25 0-.496-.006-.743-.02a1.355 1.355 0 1 1 .127-2.707c.204.01.407.013.613.013a1.356 1.356 0 0 1 0 2.711l.003.003zM20.6 34.234c-.181 0-.368-.038-.547-.117-.228-.1-.453-.206-.673-.317a1.355 1.355 0 1 1 1.215-2.424c.182.093.366.18.553.26a1.355 1.355 0 0 1-.548 2.595v.003z"/>
        </g>
        <path d="M29.834 0h20.443c2.22 0 4.023 1.8 4.023 4.023v10.326c0 2.22-1.8 4.023-4.023 4.023l.1 4.335-6.555-4.335H29.834c-2.22 0-4.023-1.8-4.023-4.023V4.023c0-2.22 1.8-4.023 4.023-4.023z" fill="url(#uc3dljxlyb)" fill-rule="nonzero"/>
        <path d="M39.64 14.991V13.94c-.884-.1-1.603-.41-2.156-.93-.556-.518-.843-1.215-.862-2.088h1.843c.02.364.13.684.334.955.206.273.485.46.84.56V9.56a14.051 14.051 0 0 0-.518-.163c-.737-.255-1.298-.583-1.686-.984-.387-.401-.58-.933-.58-1.597-.008-.783.247-1.412.765-1.89.517-.476 1.192-.753 2.02-.826V2.993h.913v1.12c.819.08 1.483.365 1.987.853.504.486.773 1.112.8 1.876h-1.87a1.316 1.316 0 0 0-.253-.729c-.16-.222-.38-.38-.661-.472V8.18c.073.027.146.054.22.076.072.021.146.049.219.076.471.162.905.355 1.296.572.39.217.704.507.94.867s.355.822.355 1.385c0 .475-.116.914-.347 1.323-.23.41-.572.749-1.024 1.017-.45.268-1.003.42-1.66.455v1.039h-.913l-.003.002zm-.955-8.298c0 .29.087.526.258.702.173.18.406.331.696.456V5.587a1.215 1.215 0 0 0-.688.369c-.177.19-.266.436-.266.737zm3.044 4.587c0-.363-.108-.65-.328-.86a2.744 2.744 0 0 0-.845-.533v2.594c.363-.054.65-.187.859-.396.209-.208.314-.477.314-.805z" fill="#FFF" fill-rule="nonzero"/>
    </g>
</svg>
