<svg width="35" height="48" viewBox="0 0 35 48" xmlns="http://www.w3.org/2000/svg">
    <defs>
        <linearGradient x1="0%" y1="50%" x2="100%" y2="50%" id="kgkyiasjga">
            <stop stop-color="#0095FF" offset="0%"/>
            <stop stop-color="#5700FF" offset="100%"/>
        </linearGradient>
    </defs>
    <g fill="none" fill-rule="evenodd">
        <path d="m27.18 41.51-10.006 6.103-9.92-6.119A15.247 15.247 0 0 1 .01 28.544c-.013-6.345-.02-14.476.023-17.83.07-.643.419-1.227.954-1.594A852.373 852.373 0 0 1 16.386.172c.501-.23 1.08-.23 1.581 0 5.19 2.933 10.338 5.933 15.508 8.899.71.406 1.028.91 1.015 1.754-.026 1.768-.015 10.687 0 17.637a15.256 15.256 0 0 1-7.31 13.05v-.002z" fill="url(#kgkyiasjga)" fill-rule="nonzero" transform="translate(.008 .01)"/>
        <path d="M17.547 13.15c-5.984 0-10.855 4.868-10.855 10.855 0 5.986 4.868 10.854 10.855 10.854 5.986 0 10.854-4.868 10.854-10.854 0-5.987-4.868-10.855-10.854-10.855z" fill="#0096FF"/>
        <path fill="#FFF" fill-rule="nonzero" d="m15.89 29.583-5.069-5.68 1.928-1.72 3.046 3.413 6.025-7.426 2.008 1.628z"/>
    </g>
</svg>
